<?xml version="1.0"?>
<svg xmlns="http://www.w3.org/2000/svg" xmlns:xlink="http://www.w3.org/1999/xlink" xmlns:svgjs="http://svgjs.com/svgjs" version="1.1" width="512" height="512" x="0" y="0" viewBox="0 0 368 368" style="enable-background:new 0 0 512 512" xml:space="preserve" class=""><g><path xmlns="http://www.w3.org/2000/svg" d="m232 0c-62.222656 0-115.441406 41.230469-131.230469 100.792969-57.9375 15.582031-100.769531 68.414062-100.769531 131.207031 0 74.992188 61.007812 136 136 136 62.792969 0 115.625-42.832031 131.207031-100.769531 59.5625-15.789063 100.792969-69.007813 100.792969-131.230469 0-74.992188-61.007812-136-136-136zm-96 352c-66.167969 0-120-53.832031-120-120 0-57.238281 40.3125-105.175781 94.023438-117.089844 3.066406-.695312 6.191406-1.175781 9.335937-1.613281 1.214844-.167969 2.417969-.425781 3.640625-.5625 4.289062-.460937 8.625-.734375 13-.734375 7.984375 0 15.769531.824219 23.320312 2.3125.671876.136719 1.335938.28125 2 .421875 3.152344.679687 6.265626 1.480469 9.320313 2.402344.527344.160156 1.0625.304687 1.589844.472656 10.921875 3.460937 21.160156 8.4375 30.488281 14.703125.226562.152344.457031.304688.679688.464844 12.496093 8.511718 23.304687 19.320312 31.824218 31.816406.160156.230469.3125.453125.472656.6875 6.25 9.3125 11.226563 19.542969 14.6875 30.445312.175782.554688.328126 1.121094.496094 1.679688.914063 3.027344 1.695313 6.097656 2.378906 9.210938.148438.695312.308594 1.390624.445313 2.09375 1.480469 7.546874 2.296875 15.320312 2.296875 23.289062 0 4.375-.273438 8.710938-.734375 12.992188-.136719 1.246093-.394531 2.464843-.570313 3.703124-.4375 3.128907-.917968 6.242188-1.617187 9.289063-11.902344 53.703125-59.839844 94.015625-117.078125 94.015625zm33.574219-251.847656c12.730469-22.242188 36.3125-36.152344 62.425781-36.152344 39.703125 0 72 32.304688 72 72 0 26.121094-13.910156 49.695312-36.160156 62.425781-.535156-2.113281-1.183594-4.179687-1.816406-6.242187-.085938-.28125-.160157-.558594-.246094-.839844-1.296875-4.136719-2.785156-8.183594-4.457032-12.144531-.039062-.09375-.082031-.183594-.121093-.277344-1.648438-3.882813-3.480469-7.65625-5.472657-11.347656-.101562-.183594-.199218-.375-.292968-.566407-4.136719-7.582031-8.976563-14.71875-14.425782-21.34375-.0625-.078124-.128906-.160156-.199218-.238281-5.503906-6.648437-11.609375-12.761719-18.265625-18.265625-.0625-.054687-.128907-.105468-.199219-.160156-6.648438-5.472656-13.808594-10.328125-21.414062-14.480469-.144532-.078125-.289063-.152343-.425782-.222656-3.75-2.03125-7.609375-3.90625-11.558594-5.578125-.023437-.007812-.058593-.023438-.082031-.039062-4-1.6875-8.085937-3.191407-12.269531-4.496094-.210938-.0625-.417969-.121094-.625-.183594-2.121094-.640625-4.234375-1.296875-6.394531-1.847656zm101.289062 149.40625c.105469-.78125.144531-1.582032.234375-2.375.101563-.953125.191406-1.902344.277344-2.855469.367188-4.082031.625-8.183594.625-12.328125 0-5.792969-.480469-11.457031-1.191406-17.0625 30.070312-14.761719 49.191406-45.097656 49.191406-78.9375 0-48.519531-39.480469-88-88-88-33.839844 0-64.175781 19.121094-78.9375 49.191406-5.605469-.710937-11.269531-1.191406-17.0625-1.191406-4.144531 0-8.257812.257812-12.34375.625-.945312.085938-1.886719.167969-2.824219.269531-.792969.089844-1.601562.128907-2.390625.234375 16.3125-48.335937 61.390625-81.128906 113.558594-81.128906 66.167969 0 120 53.832031 120 120 0 52.167969-32.800781 97.246094-81.136719 113.558594zm0 0" fill="#ffffff" data-original="#000000" style="" class=""/><path xmlns="http://www.w3.org/2000/svg" d="m136 144c-48.519531 0-88 39.480469-88 88s39.480469 88 88 88 88-39.480469 88-88-39.480469-88-88-88zm0 160c-39.703125 0-72-32.304688-72-72s32.296875-72 72-72 72 32.304688 72 72-32.296875 72-72 72zm0 0" fill="#ffffff" data-original="#000000" style="" class=""/></g></svg>
